<svg xmlns="http://www.w3.org/2000/svg" viewBox="0 0 100 100" fill="none">
  <defs>
    <linearGradient id="favGreen" x1="0%" y1="0%" x2="0%" y2="100%">
      <stop offset="0%" stop-color="#4BB526" />
      <stop offset="100%" stop-color="#2D7A17" />
    </linearGradient>
  </defs>
  <path d="M50 10 C50 10 25 40 25 60 C25 73.8 36.2 85 50 85 C63.8 85 75 73.8 75 60 C75 40 50 10 50 10 Z" fill="#D4A853" fill-opacity="0.2" />
  <path d="M50 16 C50 16 30 43 30 60 C30 71 39 79 50 79 C61 79 70 71 70 60 C70 43 50 16 50 16 Z" fill="url(#favGreen)" />
  <circle cx="50" cy="58" r="6" fill="#FFFFFF" />
  <path d="M50 79 V46M50 46 C44 41 40 41 40 41M50 56 C56 52 58 53 58 53" stroke="#FFFFFF" stroke-width="2.2" stroke-linecap="round" opacity="0.9" />
</svg>
